# xmcd
#
# Track frame offsets:
#       150
#       4886
#       16011
#       38096
#       48591
#       69221
#       79551
#       136926
#       154052
#       157807
#       197868
#
# Disc length: 2712 seconds
#
# Revision: 0
# Processed by: cddbd v1.5.1PL2 Copyright (c) Steve Scherf et al.
# Submitted via: WaveLab 4.01
#
DISCID=790a960b
DTITLE=David Lucas Burge - Relative Pitch
DYEAR=2006
DGENRE=
TTITLE0=Lesson 8: Introduction
TTITLE1=Speed Recognition of Tones
TTITLE2=Lightning Rounds: Melodic Thirds
TTITLE3=Harmonic Triads
TTITLE4=Mixed Thirds
TTITLE5=Tertian, Quartal, and Quintal Harmony
TTITLE6=Relative Pitch Identification Drill
TTITLE7=Singing Drill
TTITLE8=More Drilling Procedures
TTITLE9=Lightning Round: P5, P4, M3, m3, Perfect Octaves, and Perfect Unisons
TTITLE10=More Drilling Procedures
EXTD=
EXTT0=
EXTT1=
EXTT2=
EXTT3=
EXTT4=
EXTT5=
EXTT6=
EXTT7=
EXTT8=
EXTT9=
EXTT10=
PLAYORDER=
